<svg width="1004" height="170" viewBox="0 0 1004 170" fill="none" xmlns="http://www.w3.org/2000/svg">
<g clip-path="url(#clip0_3_923)" filter="url(#filter0_d_3_923)">
<path d="M28.9624 0.66832C22.3743 1.65494 17.091 4.3284 12.6034 8.97513C7.89305 13.8446 5.37873 19.3507 4.64671 26.4799L4.45575 28.6441H17.6957H30.9039L31.0312 78.5168C31.0948 123.711 31.1585 128.708 31.6677 131.286C33.9592 143.603 39.0515 151.4 47.613 155.697C57.1929 160.503 73.0426 162.922 92.9026 162.572C102.419 162.381 106.143 161.967 112.954 160.216C123.202 157.638 130.617 153.469 137.397 146.563C146.722 137.078 150.477 127.689 152.642 108.53C153.469 101.4 153.533 96.7536 153.183 77.6575C152.673 49.3634 151.782 41.725 148.059 32.5588C145.417 26.1298 141.598 20.5919 136.028 15.245C127.817 7.2883 118.428 3.05533 104.297 0.922928C101.241 0.445526 31.8905 0.222733 28.9624 0.66832ZM100.064 29.5034C105.952 31.1584 108.943 32.8453 112.922 36.76C115.531 39.3061 116.009 39.9745 117.441 42.9662C118.332 44.8122 119.351 47.5175 119.701 49.0133C121.069 54.774 121.642 63.9719 121.642 80.8402C121.642 111.84 120.083 119.542 112.19 126.989C105.251 133.545 95.6715 135.614 79.9491 133.959C76.098 133.545 72.2788 132.654 69.9873 131.636C67.7276 130.649 65.1814 128.262 64.1311 126.257C62.4125 122.82 62.4443 124.157 62.4443 74.5385V28.6123L80.0445 28.7078C96.9128 28.8351 97.7085 28.8669 100.064 29.5034Z" fill="#5170F1"/>
<path d="M181.159 61.394C181.159 99.6181 181.286 123.966 181.477 126.544C182.4 138.415 185.519 146.69 191.12 152.196C196.722 157.734 206.302 161.076 219.987 162.317C222.215 162.508 236.346 162.635 255.888 162.635H288.097V148.631V134.628H260.026C243.316 134.628 230.49 134.5 228.421 134.309C224.825 133.959 220.974 133.1 219.287 132.209C217.696 131.381 215.532 129.185 214.704 127.562C212.985 124.157 212.858 122.852 212.826 108.37V95.0032L238.065 94.9077C260.821 94.844 263.272 94.7804 263.272 94.3348C263.272 93.571 265.15 70.4328 265.372 68.5232L265.532 66.8364L239.179 66.7727L212.826 66.6773L212.731 47.6448L212.667 28.6441H250.382H288.097V14.4812V0.318237H234.628H181.159V61.394Z" fill="#5170F1"/>
<path d="M301.146 0.636536C301.146 0.827499 303.055 6.81094 305.411 13.9402C307.766 21.0694 319.096 55.5379 330.617 90.5474C342.107 125.557 351.846 154.869 352.228 155.665C354.169 159.484 357.543 162.349 361.362 163.431C365.468 164.577 370.974 164.036 374.22 162.126C375.875 161.171 378.421 158.498 379.567 156.524C380.045 155.665 391.63 121.451 406.206 77.753C420.369 35.2642 431.954 0.445572 431.954 0.413742C431.954 0.350098 424.539 0.318268 415.5 0.318268H399.013L394.176 16.0089C382.941 52.4825 366.677 105.22 366.518 105.665C366.359 106.079 360.598 87.5875 337.301 12.0942L333.736 0.477402L317.441 0.381912C306.111 0.350098 301.146 0.413742 301.146 0.636536Z" fill="#5170F1"/>
<path d="M583.609 10.2483C585.423 15.7225 596.817 50.3501 608.912 87.2056C621.069 124.157 631.381 155.029 631.922 156.047C633.864 159.707 636.696 162.126 640.516 163.335C642.839 164.067 647.772 164.227 649.968 163.622C653.628 162.603 656.684 160.248 658.752 156.811C659.612 155.411 666.041 136.537 685.646 77.7212C699.809 35.2323 711.394 0.445587 711.394 0.413757C711.394 0.350113 703.978 0.318283 694.908 0.318283H678.421L674.379 13.431C655.474 74.8886 645.926 105.665 645.799 105.792C645.735 105.856 640.547 89.3062 634.278 68.9688C628.008 48.6315 620.688 24.8886 618.014 16.2317L613.145 0.477417L596.722 0.381943L580.331 0.318283L583.609 10.2483Z" fill="#5170F1"/>
<path d="M731.127 61.8714C731.127 101.241 731.254 124.857 731.445 127.435C732.05 134.564 733.736 141.088 736.251 145.767C741.184 154.901 749.491 159.484 765.5 161.871C768.746 162.381 773.011 162.444 803.628 162.54L838.065 162.667V148.504V134.341L806.652 134.246L775.207 134.15L772.693 133.418C767.377 131.922 764.927 129.504 763.399 124.252C762.922 122.629 762.826 120.465 762.731 108.593L762.572 94.8441H787.906H813.24V94.112C813.24 93.2209 815.086 70.0191 815.309 68.1731L815.468 66.8364H789.052H762.635V47.7403V28.6442H800.35H838.065V14.4812V0.318283H784.596H731.127V61.8714Z" fill="#5170F1"/>
<path d="M898.918 0.66832C892.393 1.20938 885.901 3.02351 881.763 5.44235C880.745 6.04706 878.772 7.67023 877.371 9.07062C875.207 11.203 874.539 12.1578 873.138 14.9586C871.26 18.7778 870.083 22.8835 869.605 27.562C869.414 29.5671 869.223 54.774 869.128 96.6582L868.969 162.635H884.85H900.764V132.559V102.482H912.19H923.616L927.594 110.025C929.758 114.195 932.623 119.605 933.896 122.056C935.169 124.507 940.484 134.596 945.703 144.494L955.156 162.476L967.186 162.572C980.458 162.667 982.018 162.508 986.76 160.694C993.539 158.052 999.682 151.973 1002.48 145.099C1003.47 142.68 1004.52 137.938 1004.52 135.805V134.309H990.388H976.257L966.009 115.818C960.375 105.665 955.792 97.2947 955.856 97.231C955.92 97.1992 956.906 96.7536 958.052 96.2762C968.173 92.0433 977.53 82.2406 981.954 71.1967C984.628 64.6085 985.805 55.6015 985.137 47.422C983.959 33.7046 979.472 23.6155 970.656 14.7995C962.03 6.17436 952.164 1.81409 938.797 0.66832C934.309 0.254578 903.692 0.286392 898.918 0.66832ZM937.046 29.2807C946.34 31.5086 952.546 38.7969 953.533 48.6951C954.806 60.9484 948.568 71.4194 937.842 75.0477L935.296 75.907L918.046 76.0025L900.764 76.098V58.3068C900.764 47.8039 900.891 39.8154 901.082 38.8287C901.814 34.914 904.424 31.2539 907.384 30.0127C910.28 28.7714 911.203 28.7078 922.883 28.676C933.355 28.6441 934.564 28.7078 937.046 29.2807Z" fill="#5170F1"/>
<path d="M497.517 1.59132C482.081 3.05536 469.001 7.00189 459.994 12.9535C456.27 15.4042 451.337 20.4328 449.332 23.8065C445.417 30.3628 443.475 38.5423 442.743 51.5277C442.298 59.8345 442.521 115.818 443.062 120.783C444.303 132.495 446.34 139.433 450.127 145.13C457.161 155.633 471.674 162.54 492.743 165.404C498.822 166.232 517.123 166.232 522.979 165.404C546.117 162.158 561.267 154.265 567.505 142.266C569.223 139.02 570.146 136.378 571.133 132.241C573.393 122.661 573.679 116.677 573.488 79.7263C573.361 47.1037 573.297 46.1807 571.642 37.9694C569.001 24.6976 562.476 16.2317 550.255 10.0254C542.361 6.04709 533.768 3.62823 521.865 2.0369C517.664 1.46402 501.91 1.17757 497.517 1.59132ZM550.191 60.471V79.7263L544.239 79.8217L538.256 79.8854V66.6772V53.4691H523.934H509.612V47.2629V41.0566L529.917 41.1203L550.191 41.2158V60.471ZM521.228 76.8937C523.297 77.8485 524.57 80.5219 524.125 82.9089C523.87 84.2775 522.247 86.1871 520.847 86.76C518.555 87.7148 515.531 86.8873 514.067 84.914C512.603 82.9408 512.89 79.5353 514.672 77.8485C516.518 76.098 518.841 75.7479 521.228 76.8937ZM498.822 77.8166C500.827 78.8669 502.101 81.8587 501.528 84.1502C501.241 85.296 499.491 87.2056 498.249 87.7148C493.539 89.6881 488.861 84.7231 491.152 80.2037C492.552 77.4347 495.99 76.3844 498.822 77.8166ZM478.039 100.796L478.103 113.94H492.234H506.365L506.588 119.796C506.715 123.011 506.715 125.812 506.62 126.003C506.461 126.257 500.477 126.353 486.187 126.353H466.009V107.129V87.8739L467.377 87.7466C468.109 87.683 470.783 87.6511 473.329 87.6511L477.944 87.683L478.039 100.796Z" fill="#5170F1"/>
</g>
<defs>
<filter id="filter0_d_3_923" x="-4" y="0" width="1008" height="169.362" filterUnits="userSpaceOnUse" color-interpolation-filters="sRGB">
<feFlood flood-opacity="0" result="BackgroundImageFix"/>
<feColorMatrix in="SourceAlpha" type="matrix" values="0 0 0 0 0 0 0 0 0 0 0 0 0 0 0 0 0 0 127 0" result="hardAlpha"/>
<feOffset dy="4"/>
<feGaussianBlur stdDeviation="2"/>
<feComposite in2="hardAlpha" operator="out"/>
<feColorMatrix type="matrix" values="0 0 0 0 0 0 0 0 0 0 0 0 0 0 0 0 0 0 0.25 0"/>
<feBlend mode="normal" in2="BackgroundImageFix" result="effect1_dropShadow_3_923"/>
<feBlend mode="normal" in="SourceGraphic" in2="effect1_dropShadow_3_923" result="shape"/>
</filter>
<clipPath id="clip0_3_923">
<rect width="1000" height="161.362" fill="white"/>
</clipPath>
</defs>
</svg>
